<!DOCTYPE svg PUBLIC "-//W3C//DTD SVG 1.1//EN" "http://www.w3.org/Graphics/SVG/1.1/DTD/svg11.dtd">
<!-- Uploaded to: SVG Repo, www.svgrepo.com, Transformed by: SVG Repo Mixer Tools -->
<svg width="64px" height="64px" viewBox="0 0 20 20" xmlns="http://www.w3.org/2000/svg" fill="none" stroke="#000000" stroke-width="0.0002">
<g id="SVGRepo_bgCarrier" stroke-width="0"/>
<g id="SVGRepo_tracerCarrier" stroke-linecap="round" stroke-linejoin="round"/>
<g id="SVGRepo_iconCarrier"> <path fill="#000000" fill-rule="evenodd" d="M1 3a2 2 0 012-2h5.532a2 2 0 011.536.72l1.9 2.28H17a2 2 0 012 2v11a2 2 0 01-2 2H3a2 2 0 01-2-2V3zm7.532 0H3v14h14V6h-5.032a2 2 0 01-1.536-.72L8.532 3zM9 10.5V9a1 1 0 112 0v1.5h1.5a1 1 0 110 2H11V14a1 1 0 11-2 0v-1.5H7.5a1 1 0 110-2H9z"/> </g>
</svg>