<!DOCTYPE svg PUBLIC "-//W3C//DTD SVG 1.1//EN" "http://www.w3.org/Graphics/SVG/1.1/DTD/svg11.dtd">
<!-- Uploaded to: SVG Repo, www.svgrepo.com, Transformed by: SVG Repo Mixer Tools -->
<svg fill="#000000" width="64px" height="64px" viewBox="0 0 24 24" xmlns="http://www.w3.org/2000/svg" stroke="#000000" stroke-width="0.984">
<g id="SVGRepo_bgCarrier" stroke-width="0"/>
<g id="SVGRepo_tracerCarrier" stroke-linecap="round" stroke-linejoin="round"/>
<g id="SVGRepo_iconCarrier">
<path d="M22,3a1,1,0,0,1-1,1H20v6A8,8,0,0,1,4,10V4H3A1,1,0,0,1,3,2H7A1,1,0,0,1,7,4H6v6a6,6,0,0,0,12,0V4H17a1,1,0,0,1,0-2h4A1,1,0,0,1,22,3Zm0,18a1,1,0,0,0-1-1H3a1,1,0,0,0,0,2H21A1,1,0,0,0,22,21Z"/>
</g>
</svg>